<svg width="137" height="264" viewBox="0 0 137 264" fill="none" xmlns="http://www.w3.org/2000/svg">
<circle cx="90.5" cy="217.5" r="46.5" fill="#EBEBEB"/>
<path fill-rule="evenodd" clip-rule="evenodd" d="M14.2693 132.615C-2.40931 147.93 -3.51438 173.866 11.801 190.545C18.3877 197.718 26.939 202.01 35.8733 203.355C42.1767 179.032 64.2758 161.07 90.57 161.07C94.8473 161.07 99.0136 161.545 103.019 162.446L122.889 144.199C139.568 128.884 140.673 102.948 125.358 86.2693C110.042 69.5907 84.1061 68.4856 67.4275 83.801L14.2693 132.615Z" fill="#D9D9D9"/>
<path fill-rule="evenodd" clip-rule="evenodd" d="M14.1992 60.5445C-2.47935 75.8599 -3.58442 101.796 11.731 118.475C12.4582 119.267 13.2093 120.023 13.9823 120.745C14.0543 120.678 14.1266 120.611 14.1992 120.545L67.3575 71.731C83.2441 57.1428 107.53 57.4527 123.036 71.9288C139.507 56.5884 140.536 30.8052 125.288 14.1992C109.972 -2.47936 84.0361 -3.58441 67.3575 11.731L14.1992 60.5445Z" fill="#D9D9D9"/>
</svg>
